<?xml version="1.0" standalone="no"?><!DOCTYPE svg PUBLIC "-//W3C//DTD SVG 1.1//EN" "http://www.w3.org/Graphics/SVG/1.1/DTD/svg11.dtd"><svg t="1618480595043" class="icon" viewBox="0 0 1032 1024" version="1.1" xmlns="http://www.w3.org/2000/svg" p-id="2007" xmlns:xlink="http://www.w3.org/1999/xlink" width="201.5625" height="200"><defs><style type="text/css"></style></defs><path d="M688.702466 1008.246154H327.35955C151.174396 1008.246154 7.815862 864.918883 7.815862 688.702466V327.35955C7.815862 151.174396 151.174396 7.815862 327.35955 7.815862h361.342916C864.903251 7.815862 1008.246154 151.174396 1008.246154 327.35955v361.342916c0 176.216417-143.342903 319.543688-319.543688 319.543688z m256.688528-680.886604c0-141.77973-114.92443-256.70416-256.688528-256.704161H327.35955c-141.748467 0-256.70416 114.92443-256.704161 256.704161v361.342916c0 141.77973 114.955693 256.70416 256.704161 256.70416h361.342916c141.764099 0 256.688529-114.92443 256.688528-256.70416V327.35955zM696.659013 900.856215H319.403003c-112.595303 0-204.18157-91.601899-204.18157-204.197202a20.977773 20.977773 0 0 1 41.90865 0c0 89.491616 72.781304 162.288551 162.27292 162.288551h377.25601c89.491616 0 162.288551-72.796935 162.288551-162.288551V302.614532a20.946509 20.946509 0 1 1 41.908651 0v394.044481c0 112.595303-91.601899 204.197202-204.197202 204.197202zM384.1496 331.17369l316.245395 158.114881a20.946509 20.946509 0 0 1 0 37.484873L384.1496 684.903957a21.024668 21.024668 0 0 1-20.399398-0.90664 20.993404 20.993404 0 0 1-9.910513-17.835796v-316.229763a20.930878 20.930878 0 0 1 30.309911-18.758068z m11.567476 301.098255L644.183318 508.031008l-248.466242-124.194042v248.434979z m405.299322-437.062984a162.36671 162.36671 0 0 0-104.357385-38.09451H319.403003c-89.491616 0-162.27292 72.796935-162.27292 162.288552v247.684655a20.946509 20.946509 0 0 1-41.90865 0V319.403003c0-112.595303 91.586267-204.18157 204.18157-204.18157h377.25601a204.462941 204.462941 0 0 1 131.337739 47.926863c8.847555 7.456332 9.973039 20.665138 2.547971 29.543957a21.009036 21.009036 0 0 1-29.528325 2.516708z" p-id="2008"></path></svg>